<svg width="100" height="100" viewBox="0 0 100 100" fill="none" xmlns="http://www.w3.org/2000/svg">
<path d="M67 58C67 64.0751 64.5376 69.5751 60.5564 73.5564C56.5751 77.5376 51.0751 80 45 80C38.9249 80 33.4249 77.5376 29.4437 73.5564C25.4624 69.5751 23 64.0751 23 58C23 51.9249 25.4624 46.4249 29.4437 42.4437C33.4249 38.4624 38.9249 36 45 36C51.0751 36 56.5751 38.4624 60.5564 42.4437C64.5376 46.4249 67 51.9249 67 58Z" fill="white"/>
<g clip-path="url(#clip0)">
<path d="M55 51.7988C54.2563 52.125 53.4637 52.3412 52.6375 52.4462C53.4875 51.9388 54.1363 51.1412 54.4412 50.18C53.6488 50.6525 52.7738 50.9863 51.8412 51.1725C51.0887 50.3713 50.0162 49.875 48.8462 49.875C46.5763 49.875 44.7487 51.7175 44.7487 53.9763C44.7487 54.3012 44.7762 54.6137 44.8438 54.9112C41.435 54.745 38.4188 53.1113 36.3925 50.6225C36.0387 51.2363 35.8313 51.9388 35.8313 52.695C35.8313 54.115 36.5625 55.3737 37.6525 56.1025C36.9937 56.09 36.3475 55.8988 35.8 55.5975C35.8 55.61 35.8 55.6262 35.8 55.6425C35.8 57.635 37.2212 59.29 39.085 59.6712C38.7512 59.7625 38.3875 59.8062 38.01 59.8062C37.7475 59.8062 37.4825 59.7913 37.2337 59.7362C37.765 61.36 39.2725 62.5538 41.065 62.5925C39.67 63.6838 37.8988 64.3412 35.9813 64.3412C35.645 64.3412 35.3225 64.3263 35 64.285C36.8162 65.4563 38.9688 66.125 41.29 66.125C48.835 66.125 52.96 59.875 52.96 54.4575C52.96 54.2762 52.9538 54.1013 52.945 53.9275C53.7588 53.35 54.4425 52.6288 55 51.7988Z" fill="white"/>
</g>
<defs>
<clipPath id="clip0">
<rect width="20" height="20" fill="white" transform="translate(35 48)"/>
</clipPath>
</defs>
</svg>
